<?xml version="1.0" encoding="utf-8"?>
<!-- Generated by IcoMoon.io -->
<!DOCTYPE svg PUBLIC "-//W3C//DTD SVG 1.1//EN" "http://www.w3.org/Graphics/SVG/1.1/DTD/svg11.dtd">
<svg version="1.1" xmlns="http://www.w3.org/2000/svg" xmlns:xlink="http://www.w3.org/1999/xlink" width="512" height="512" viewBox="0 0 512 512">
<g>
</g>
	<path d="M272.978 198.031v151.040c10.404 6.195 16.978 17.5 16.978 30.536 0 19.784-14.797 35.062-33.966 35.062-18.626 0-33.966-15.278-33.966-35.062 0-13.036 6.595-24.341 16.988-30.536v-151.040c6.031 0.542 12.053 0.542 18.074 0.542 5.478 0 10.957 0 15.892-0.542v0zM256 38.175c134.226 0 243.2 31.662 243.2 70.185 0 38.983-108.984 70.144-243.2 70.144-134.195 0-243.2-31.16-243.2-70.144 0-38.533 108.995-70.185 243.2-70.185v0zM290.498 413.286c-4.915 9.615-18.616 22.62-34.509 22.62-15.872 0-29.573-13.005-34.499-22.62-79.422 4.516-139.131 30.003-139.131 57.139 0 1.116 0 2.263 0.543 3.399h346.194c0.522-1.137 0.522-2.284 0.522-3.399 0-27.136-59.699-52.613-139.12-57.139z" fill="white" />
</svg>
